<svg width="63" height="63" viewBox="0 0 63 63" fill="none" xmlns="http://www.w3.org/2000/svg">
<circle cx="31.5" cy="31.5" r="30" stroke="#FF5252" stroke-width="3"/>
<g clip-path="url(#clip0_1182_52)">
<path d="M46.8947 30.6496L27.8038 11.5592C27.0584 10.8136 25.8495 10.8136 25.104 11.5593C24.3585 12.3048 24.3585 13.5136 25.1041 14.2591L42.845 31.9997L25.104 49.7411C24.3585 50.4867 24.3585 51.6954 25.1041 52.4409C25.4768 52.8137 25.9654 53 26.454 53C26.9426 53 27.4312 52.8137 27.8039 52.4408L46.8947 33.3494C47.2529 32.9914 47.454 32.5058 47.454 31.9995C47.454 31.4932 47.2529 31.0076 46.8947 30.6496Z" fill="black"/>
</g>
<defs>
<clipPath id="clip0_1182_52">
<rect width="42" height="42" fill="white" transform="translate(15 11)"/>
</clipPath>
</defs>
</svg>
