<svg width="63" height="63" viewBox="0 0 63 63" fill="none" xmlns="http://www.w3.org/2000/svg">
<circle cx="31.5" cy="31.5" r="30" transform="rotate(-180 31.5 31.5)" stroke="#FF5252" stroke-width="3"/>
<g clip-path="url(#clip0_1182_57)">
<path d="M16.1053 32.3504L35.1962 51.4408C35.9416 52.1864 37.1505 52.1864 37.896 51.4407C38.6415 50.6952 38.6415 49.4864 37.8959 48.7409L20.155 31.0003L37.896 13.2589C38.6415 12.5133 38.6415 11.3046 37.8959 10.5591C37.5232 10.1863 37.0346 9.99995 36.546 9.99995C36.0574 9.99995 35.5688 10.1863 35.1961 10.5592L16.1053 29.6506C15.7471 30.0086 15.546 30.4942 15.546 31.0005C15.546 31.5068 15.7471 31.9924 16.1053 32.3504Z" fill="black"/>
</g>
<defs>
<clipPath id="clip0_1182_57">
<rect width="42" height="42" fill="white" transform="translate(48 52) rotate(-180)"/>
</clipPath>
</defs>
</svg>
